<svg xmlns="http://www.w3.org/2000/svg" xmlns:xlink="http://www.w3.org/1999/xlink" viewBox="0 0 700.5 485"><defs><style>.cls-1{fill:none;}.cls-2{clip-path:url(#clip-path);}.cls-3{fill:#e15e95;}.cls-4{fill:#a03d67;}.cls-5{fill:#76c669;}.cls-6{fill:#f3b03b;}.cls-7{fill:#1d9bdd;}</style><clipPath id="clip-path"><rect class="cls-1" width="700.5" height="484.7"/></clipPath></defs><g id="レイヤー_2" data-name="レイヤー 2"><g id="レイヤー_1-2" data-name="レイヤー 1"><g class="cls-2"><g id="レイヤー_2-2" data-name="レイヤー 2"><g id="レイヤー_2-2-2" data-name="レイヤー 2-2"><path class="cls-3" d="M108.52,485H0V64.35C0,22.25,48.59,0,108.52,0h0Z"/><path class="cls-4" d="M108.52,133,0,64.35H0C0,22.25,48.59,0,108.52,0h0Z"/><path class="cls-3" d="M0,64.35C0,22.25,48.59,0,108.52,0h0V485"/><path class="cls-4" d="M0,64.35C0,22.25,48.59,0,108.52,0h0V133L0,64.35"/><path class="cls-3" d="M322.6,484.7H431.12V64.31C431.12,22.23,382.53,0,322.6,0h0Z"/><path class="cls-4" d="M322.6,133,431.12,64.35h0C431.12,22.25,382.53,0,322.6,0h0Z"/><path class="cls-3" d="M431.12,64.35C431.12,22.25,382.53,0,322.6,0h0V485"/><path class="cls-4" d="M431.12,64.35C431.12,22.25,382.53,0,322.6,0h0V133L431.12,64.35"/><polygon class="cls-3" points="322.6 0 215.56 66.29 108.52 0 108.53 133 215.56 200.7 215.56 200.71 215.56 200.7 215.56 200.71 215.56 200.7 322.6 133 322.6 0"/></g><g id="レイヤー_3" data-name="レイヤー 3"><rect class="cls-5" x="457.91" y="132.78" width="108.52" height="351.92"/><path class="cls-6" d="M565.29,0h1.14V107.76H457.91v-.38A107.39,107.39,0,0,1,565.29,0Z"/></g><g id="レイヤー_4" data-name="レイヤー 4"><path class="cls-7" d="M592,0h0A108.5,108.5,0,0,1,700.5,108.5V376.2A108.5,108.5,0,0,1,592,484.7h0V0Z"/></g></g></g></g></g></svg>