<svg width="800" height="585" viewBox="0 0 800 585" fill="none" xmlns="http://www.w3.org/2000/svg">
<path d="M158.52 519H50V126.972C50 87.7361 98.59 67 158.52 67V519Z" fill="#E15E95"/>
<path d="M158.52 190.951L50 126.972C50 87.7361 98.59 67 158.52 67V190.951Z" fill="#A03D67"/>
<path d="M50 126.972C50 87.7361 98.59 67 158.52 67V519" fill="#E15E95"/>
<path d="M50 126.972C50 87.7361 98.59 67 158.52 67V190.951L50 126.972Z" fill="#A03D67"/>
<path d="M372.6 518.72H481.12V126.934C481.12 87.7174 432.53 67 372.6 67V518.72Z" fill="#E15E95"/>
<path d="M372.6 190.951L481.12 126.972C481.12 87.7361 432.53 67 372.6 67V190.951Z" fill="#A03D67"/>
<path d="M481.12 126.972C481.12 87.7361 432.53 67 372.6 67V519" fill="#E15E95"/>
<path d="M481.12 126.972C481.12 87.7361 432.53 67 372.6 67V190.951L481.12 126.972Z" fill="#A03D67"/>
<path d="M372.6 67L265.56 128.78L158.52 67L158.53 190.951L265.56 254.044V254.053V254.044V254.053V254.044L372.6 190.951V67Z" fill="#E15E95"/>
<path d="M616.43 190.746H507.91V518.72H616.43V190.746Z" fill="#76C669"/>
<path d="M615.29 67H616.43V167.428H507.91V167.074C507.91 140.533 519.223 115.078 539.361 96.3109C559.499 77.5435 586.811 67 615.29 67V67Z" fill="#F3B03B"/>
<path d="M642 67C670.776 67 698.373 77.6534 718.721 96.6166C739.069 115.58 750.5 141.299 750.5 168.118V417.603C750.5 444.421 739.069 470.141 718.721 489.104C698.373 508.067 670.776 518.72 642 518.72V67Z" fill="#1D9BDD"/>
</svg>
