<svg id="レイヤー_1" data-name="レイヤー 1" xmlns="http://www.w3.org/2000/svg" xmlns:xlink="http://www.w3.org/1999/xlink" viewBox="0 0 700.5 485"><defs><style>.cls-1{fill:none;}.cls-2{clip-path:url(#clip-path);}.cls-3{fill:#ed6c8e;}.cls-4{fill:#993b63;}.cls-5{fill:#a03954;}.cls-6{fill:#9ec23f;}.cls-7{fill:#f3b03b;}.cls-8{fill:#3ba2e4;}</style><clipPath id="clip-path"><rect class="cls-1" width="700.5" height="484.7"/></clipPath></defs><g id="レイヤー_2" data-name="レイヤー 2"><g id="レイヤー_1-2" data-name="レイヤー 1-2"><g class="cls-2"><g id="レイヤー_2-2" data-name="レイヤー 2-2"><g id="レイヤー_2-2-2" data-name="レイヤー 2-2-2"><path class="cls-3" d="M108.5,485H0V64.3C0,22.2,48.6,0,108.5,0h0Z"/><path class="cls-4" d="M108.5,133,0,64.3H0C0,22.2,48.6,0,108.5,0h0Z"/><path class="cls-5" d="M0,64.3C0,22.2,48.6,0,108.5,0h0V133L0,64.3"/><path class="cls-3" d="M322.6,484.7H431.1V64.3C431.1,22.2,382.5,0,322.6,0h0Z"/><path class="cls-4" d="M322.6,133,431.1,64.3h0C431.1,22.2,382.5,0,322.6,0h0Z"/><path class="cls-5" d="M431.1,64.3C431.1,22.2,382.5,0,322.6,0h0V133L431.1,64.3"/><polygon class="cls-3" points="322.6 0 215.6 66.3 108.5 0 108.5 133 215.6 200.7 215.6 200.7 215.6 200.7 215.6 200.7 215.6 200.7 322.6 133 322.6 0"/></g><g id="レイヤー_3" data-name="レイヤー 3"><rect class="cls-6" x="457.9" y="132.8" width="108.5" height="351.9"/><path class="cls-7" d="M565.3,0h1.1V107.8H457.9v-.4A107.42,107.42,0,0,1,565.3,0Z"/></g><g id="レイヤー_4" data-name="レイヤー 4"><path class="cls-8" d="M592,0h0A108.53,108.53,0,0,1,700.5,108.5V376.2A108.53,108.53,0,0,1,592,484.7h0Z"/></g></g></g></g></g></svg>