<svg width="801" height="585" viewBox="0 0 801 585" fill="none" xmlns="http://www.w3.org/2000/svg">
<g clip-path="url(#clip0_0_3)">
<path d="M158.5 535H50V114.3C50 72.2 98.6 50 158.5 50V535Z" fill="#E15E95"/>
<path d="M158.5 183L50 114.3C50 72.2 98.6 50 158.5 50V183Z" fill="#993B63"/>
<path d="M50 114.3C50 72.2 98.6 50 158.5 50V183L50 114.3Z" fill="#A03D67"/>
<path d="M372.6 534.7H481.1V114.3C481.1 72.2 432.5 50 372.6 50V534.7Z" fill="#E15D95"/>
<path d="M372.6 183L481.1 114.3C481.1 72.2 432.5 50 372.6 50V183Z" fill="#993B63"/>
<path d="M481.1 114.3C481.1 72.2 432.5 50 372.6 50V183L481.1 114.3Z" fill="#A03D66"/>
<path d="M372.6 50L265.6 116.3L158.5 50V183L265.6 250.7L372.6 183V50Z" fill="#E15D95"/>
<path d="M616.4 182.8H507.9V534.7H616.4V182.8Z" fill="#76C669"/>
<path d="M615.3 50H616.4V157.8H507.9V157.4C507.905 128.917 519.222 101.603 539.363 81.4626C559.503 61.3223 586.817 50.0053 615.3 50V50Z" fill="#F3B03B"/>
<path d="M642 50C670.774 50.008 698.366 61.4417 718.712 81.7877C739.058 102.134 750.492 129.726 750.5 158.5V426.2C750.492 454.974 739.058 482.566 718.712 502.912C698.366 523.258 670.774 534.692 642 534.7V534.7V50Z" fill="#2691CD"/>
</g>
<defs>
<clipPath id="clip0_0_3">
<rect width="700.5" height="485" fill="white" transform="translate(50 50)"/>
</clipPath>
</defs>
</svg>
