<svg xmlns="http://www.w3.org/2000/svg" viewBox="0 0 1831.64 485.01"><defs><style>.cls-1{fill:#e15e95;}.cls-2{fill:#a03d67;}.cls-3{fill:#76c669;}.cls-4{fill:#f3b03b;}.cls-5{fill:#1d9bdd;}.cls-6{fill:#bc8524;}.cls-7{fill:#4a8b3f;}.cls-8{fill:#1779aa;}</style></defs><g id="レイヤー_2" data-name="レイヤー 2"><g id="レイヤー_2-2" data-name="レイヤー 2"><path class="cls-1" d="M108.52,485H0V64.35C0,22.25,48.59,0,108.52,0h0Z"/><path class="cls-2" d="M108.52,133,0,64.35H0C0,22.25,48.59,0,108.52,0h0Z"/><path class="cls-1" d="M0,64.35C0,22.25,48.59,0,108.52,0h0V485"/><path class="cls-2" d="M0,64.35C0,22.25,48.59,0,108.52,0h0V133L0,64.35"/><path class="cls-1" d="M322.6,484.7H431.12V64.31C431.12,22.23,382.53,0,322.6,0h0Z"/><path class="cls-2" d="M322.6,133,431.12,64.35h0C431.12,22.25,382.53,0,322.6,0h0Z"/><path class="cls-1" d="M431.12,64.35C431.12,22.25,382.53,0,322.6,0h0V485"/><path class="cls-2" d="M431.12,64.35C431.12,22.25,382.53,0,322.6,0h0V133L431.12,64.35"/><polygon class="cls-1" points="322.6 0 215.56 66.29 108.52 0 108.53 133 215.56 200.7 215.56 200.71 215.56 200.7 215.56 200.71 215.56 200.7 322.6 133 322.6 0"/></g><g id="レイヤー_3" data-name="レイヤー 3"><rect class="cls-3" x="457.91" y="132.78" width="108.52" height="351.92"/><path class="cls-4" d="M565.29,0h1.14a0,0,0,0,1,0,0V107.76a0,0,0,0,1,0,0H457.91a0,0,0,0,1,0,0v-.38A107.38,107.38,0,0,1,565.29,0Z"/></g><g id="レイヤー_4" data-name="レイヤー 4"><path class="cls-5" d="M592,0h0a108.5,108.5,0,0,1,108.5,108.5V376.2A108.5,108.5,0,0,1,592,484.7h0a0,0,0,0,1,0,0V0a0,0,0,0,1,0,0Z"/></g><g id="レイヤー_5" data-name="レイヤー 5"><path class="cls-4" d="M835.62,268.13V132.78h-.78a108,108,0,0,0-108,108V484.7H835.62V377.17l242.14-135.38v-109Z"/><polygon class="cls-6" points="835.62 301.24 1077.76 403 1077.76 484.7 835.62 381.29 835.62 301.24"/></g><g id="レイヤー_6" data-name="レイヤー 6"><path class="cls-3" d="M1344.89,132.78H1213.6a109.81,109.81,0,0,0-109.81,109.81h0v25.54h0V382.59A102.11,102.11,0,0,0,1205.9,484.7h153.81A81.7,81.7,0,0,0,1441.4,403H1219.06a13.13,13.13,0,0,1-2.25-26.06H1345.9a108.81,108.81,0,0,0,108.8-108.81h0V242.59h0A109.81,109.81,0,0,0,1344.89,132.78Zm-5,135.28H1218.64a12.74,12.74,0,0,1-12.74-12.73V242.59h133.95a12.74,12.74,0,1,1,0,25.47Z"/><path class="cls-7" d="M1103.79,242.59h102.14V133.05A109.81,109.81,0,0,0,1103.79,242.59Z"/></g><g id="レイヤー_7" data-name="レイヤー 7"><path class="cls-5" d="M1831.64,132.78a108.54,108.54,0,0,0-108.55,108.54v1.24a25.57,25.57,0,0,1-25.57,25.57h-108V132.78h0a108.78,108.78,0,0,0-108.78,108.78v26.53a108.78,108.78,0,0,0,108.78,108.78h0v.07h122a12.92,12.92,0,0,1,11.59,12.91V390a12.9,12.9,0,0,1-12.83,13H1562.44a81.69,81.69,0,0,0-81.69,81.7h272.89a78,78,0,0,0,78-78V132.78Z"/><path class="cls-8" d="M1480.75,268.06v0a108.78,108.78,0,0,0,108.78,108.78h0V268.06Z"/></g></g></svg>